<svg xmlns="http://www.w3.org/2000/svg" viewBox="0 0 24 24" width="128" height="128">
  <rect width="24" height="24" rx="4" fill="#667eea"/>
  <g fill="#fff">
    <rect x="3" y="3" width="7" height="7" rx="1"/>
    <rect x="4.5" y="4.5" width="4" height="4" rx="0.5" fill="#667eea"/>
    <rect x="5.5" y="5.5" width="2" height="2" fill="#fff"/>
    <rect x="14" y="3" width="7" height="7" rx="1"/>
    <rect x="15.5" y="4.5" width="4" height="4" rx="0.5" fill="#667eea"/>
    <rect x="16.5" y="5.5" width="2" height="2" fill="#fff"/>
    <rect x="3" y="14" width="7" height="7" rx="1"/>
    <rect x="4.5" y="15.5" width="4" height="4" rx="0.5" fill="#667eea"/>
    <rect x="5.5" y="16.5" width="2" height="2" fill="#fff"/>
    <rect x="12" y="12" width="2" height="2"/>
    <rect x="16" y="12" width="2" height="2"/>
    <rect x="14" y="14" width="2" height="2"/>
    <rect x="12" y="16" width="2" height="2"/>
    <rect x="16" y="16" width="2" height="2"/>
    <rect x="19" y="14" width="2" height="2"/>
    <rect x="14" y="19" width="2" height="2"/>
    <rect x="19" y="19" width="2" height="2"/>
  </g>
</svg>
